# xmcd
#
# Track frame offsets: 
#        150
#        15243
#        28928
#        46678
#        57415
#        74213
#        87363
#        102440
#        114315
#        124175
#        138597
#        155288
#        166715
#        179625
#        189010
#        200160
#        212270
#        224060
#        236065
#        247195
#        261100
#        275125
#        289173
#
# Disc length: 4035 seconds
#
# Revision: 0
# Processed by: cddbd v1.4PL0 Copyright (c) Steve Scherf et al.
# Submitted via: ExactAudioCopy v0.90b4
#
DISCID=620fc117
DTITLE=Gene Watson - Ultimate Collection
DYEAR=2001
DGENRE=Country
TTITLE0=Love In The Hot Afternoon
TTITLE1=Where Love Begins
TTITLE2=Paper Rosie
TTITLE3=Pick The Wildwood Flower
TTITLE4=Nothing Sure Looked Good On You
TTITLE5=Between This Time And The Next Time
TTITLE6=Maybe I Should Have Been Listening
TTITLE7=Fourteen Carat Mind
TTITLE8=Speak Softly (You're Talking To My Heart)
TTITLE9=This Dream's On Me
TTITLE10=What She Don't Know Won't Hurt Her
TTITLE11=You're Out Doing What I'm Here Doing Without
TTITLE12=Sometimes I Get Lucky And Forget
TTITLE13=Drinkin' My Way Back Home
TTITLE14=Forever Again
TTITLE15=Got No Reason Now For Goin' Home
TTITLE16=Cold Summer Day In Georgia
TTITLE17=Memories To Burn
TTITLE18=Everything I Used To Do
TTITLE19=Everybody Needs A Hero
TTITLE20=Don't Waste It On The Blues
TTITLE21=Back In The Fire
TTITLE22=The Jukebox Played Along
EXTD=
EXTT0=
EXTT1=
EXTT2=
EXTT3=
EXTT4=
EXTT5=
EXTT6=
EXTT7=
EXTT8=
EXTT9=
EXTT10=
EXTT11=
EXTT12=
EXTT13=
EXTT14=
EXTT15=
EXTT16=
EXTT17=
EXTT18=
EXTT19=
EXTT20=
EXTT21=
EXTT22=
PLAYORDER=
